<svg id="SvgjsSvg1204" width="360" height="360" xmlns="http://www.w3.org/2000/svg" version="1.1" xmlns:xlink="http://www.w3.org/1999/xlink" xmlns:svgjs="http://svgjs.com/svgjs"><defs id="SvgjsDefs1205"></defs><g id="SvgjsG1206"><svg xmlns="http://www.w3.org/2000/svg" data-name="Layer 1" viewBox="0 0 800 800" width="360" height="360"><defs><clipPath id="a"><path fill="none" d="M1536.29 372.09c-19.62-99.06-89.7-180.67-183.73-217.53C1139.27 71 925.77 135.33 884.88 366.05c-39 219.83 141.56 141.66 298.53 312 136.68 148.29 409.88 14.38 354.23-298.73-.43-2.46-.88-4.85-1.35-7.23Z"></path></clipPath><clipPath id="b"><path fill="none" d="M827.15 190.25h325.89v420.27H827.15z" data-name="SVGID" transform="rotate(180 990.095 400.385)"></path></clipPath><clipPath id="c"><path fill="none" d="M-191.29 302.55c-75.74-23-141-55.49-215-145.67S-679.19 94.45-737 229.72-753.18 489.85-683.81 513s99.14 45.76 137.44 134.49c30.72 71.17 201.53 105.44 254.46 36.81 96.79-125.54 99.47-76.5 145.71-170.15s32.72-187.98-45.09-211.6Z" data-name="SVGID"></path></clipPath><clipPath id="d"><path fill="none" d="M362.28 98.51c93.27 18.37 140.88 124 291.08 218s117.13 461-120.08 401.16c-226.3-57.11-236.77-52.6-385-47.32-185.49 6.59-81.15-629.99 214-571.84Z" data-name="SVGID"></path></clipPath></defs><g clip-path="url(#a)" fill="#000000" class="color000 svgShape"><g clip-path="url(#b)" fill="#000000" class="color000 svgShape"><path fill="#c6d0db" d="M1043.45 393.79a4.93 4.93 0 0 0 1.72-1.16c2.77-3.26-.64-5.78-3.1-7.52l-9.28-6.55c-2.73-3.36-5.47-6.53-7.94-9.4a28.1 28.1 0 0 0 3.55-17.51 14 14 0 0 0 1.64-12.23c-1.12-3.41-6.12-2.31-6 .8a40.39 40.39 0 0 0-4.88-6.23 13.18 13.18 0 0 0 3.38-6 1.17 1.17 0 0 0-.81-1.43c-1.68-.36-2.91.54-4 1.78-.1.11-.19.24-.29.35a7.8 7.8 0 0 0-.68.84l-1 1.18a72.3 72.3 0 0 0-25.75-14.09l-1.26-.41a11 11 0 0 0 1.21-8.08 1.17 1.17 0 0 0-1.94-.52 11.76 11.76 0 0 0-3.27 5.13 24.6 24.6 0 0 0-2.41-6 2.89 2.89 0 0 0-1.17-1.14 29.75 29.75 0 0 0-2.28-3 1.18 1.18 0 0 0-1.83.24 8.73 8.73 0 0 0-1.78 5.51l-.21 1.6a62.66 62.66 0 0 1-11.5-9.77 51.28 51.28 0 0 0-5-4.52c2.4-1.63-.35-7.14-1.15-9-.37-.86-1.57-.65-2 0a11.13 11.13 0 0 0-1.88 5.51 44.14 44.14 0 0 0-7.24-3.45c-11.34-4.22-23.6-3.8-35.06-.47a2.47 2.47 0 0 0-.67-2.41c-1.09-1.08-2.21-.17-2.8.86s-1.22 2.21-1.82 3.32c-1.39.52-2.78 1.08-4.14 1.68a84.53 84.53 0 0 1-14.07 4.92 21.14 21.14 0 0 0 .9-3.13c.23-1.15.68-3-.56-3.73s-2.74.35-3.66 1.07c-2.33 1.82-3.44 4.47-4.12 7.25a89.48 89.48 0 0 1-9.66.85 79.39 79.39 0 0 0-10.23 1.1c1-2.62 1-6.28-1.65-7.76-3-1.71-6.29 2.06-8.15 4a36.83 36.83 0 0 0-5.77 8.08 76.73 76.73 0 0 0-19.24 10.93c-1.27 1-2.4 1.88-3.53 2.74a23.89 23.89 0 0 0-11.26-7.25c-3.51-1-5.09 4-2.23 5.53a26.88 26.88 0 0 0 6.28 6.31c-4 1.77-8.27 2.22-14.6.64-22.29-5.51-36.62 1-46.39 14.4a10.63 10.63 0 0 0-.54-2c-.31-.86-1.64-1.25-2.12-.28a11.42 11.42 0 0 0-1 3.37 13.8 13.8 0 0 0-2.35-2.36.72.72 0 0 0-.24-.19 3 3 0 0 0-.34-.28 1.06 1.06 0 0 0-1.19 0 5.54 5.54 0 0 0-3.12 4.67 17.61 17.61 0 0 0 1.77 14.57c-.5 1.29-1 2.63-1.42 4a15.29 15.29 0 0 0-7.76-3.12.9.9 0 0 0-1 .7 1.06 1.06 0 0 0-.1 1.27 10.53 10.53 0 0 0 7.58 4.86l.1.06c-.28.92-.58 1.82-.86 2.77a.65.65 0 0 1-.3.06c-11.49 5.22-16.23 11.61-14.34 24.49 1 7 1.64 14.89 4.8 21.09-4.52 4.42-8.49 9-11.06 14.3l-.42-.31a2.64 2.64 0 0 0-2.91-1.87c-2.6-.63-4.64 2.69-3 4.77a18.51 18.51 0 0 0 1.9 9.34l-5.86-.57c-1.09-.11-1.4 1.3-.82 2a11.68 11.68 0 0 0 8.66 4.14 37.36 37.36 0 0 0 4.8 13.19 47.57 47.57 0 0 0 18.78 18c13.37 7.05 27.71 4.62 42 2 12.16-2.19 21-10.82 25-22 9.18 5.22 20 1.52 24.56-7.66a26.42 26.42 0 0 0 26.25-8.63c5.17-5.84 5.59-11.25 8-18.29s.43-4.75 7-5.54c3.47-.48 6.87-.36 10.27-1 8.76-1.52 14.9-5.41 22.8-8.75 4.55-1.88 11.06-6.32 16.52-2.31 1.58 1.16 3 5.59 4.2 7.29a36.11 36.11 0 0 0 14 11.31c8.63 3.95 19.08 1.34 26.37 7.41 10.94 9.12 18.42 20.42 34.16 21.28 8.87.48 14.77-2.25 19.81-7.11a62.12 62.12 0 0 0 6.63-8.09c6.93-9.91 20.6-9.36 19.75-24.31-.32-5.29-2.41-10.78-5.38-16.13Z" class="colorc6d0db svgShape"></path><path fill="#abb7c2" d="M1009 449.23a23.8 23.8 0 0 0 13.43-6.83 13.23 13.23 0 0 0-3.43-5.4c-3.83-3.82-9.48-4.55-14.34-6.19-15.62-5.41-16.23-19.76-15.74-34a3.14 3.14 0 0 0-3.83-3 52.1 52.1 0 0 1-23.34-.66c-.43-.37-.91-.67-1.34-1.1-2.25-2.25-1-4.68-1.15-7.47v-.13a.45.45 0 0 0-.06-.24v-.06a2.22 2.22 0 0 0-1.1-2c-1.82-1.58-5.28-.91-5 2.07a.78.78 0 0 1 .06.37c-.19 1.92-1.58 2.77-3.35 3.07a12.14 12.14 0 0 1-4.74-3.52 7.13 7.13 0 0 1-2.22-4.59 25.82 25.82 0 0 0-.37-3.62 1 1 0 0 0-.67-.7 1.2 1.2 0 0 0-2.19-.56 7 7 0 0 0-.88 5.84c-.44-.42-.89-.83-1.32-1.27-2.74-2.8-4.74-6.69-8.21-8.75-7.29-4.44-15-4.93-21-12.22a3 3 0 0 0-4.25 0 140.56 140.56 0 0 1-13.85 12.09c-3.47 0-6.69-.91-8.39-4-1.82-3.28-6.5-.67-5.41 2.49a2.49 2.49 0 0 0 .91 2.38c4.74 3.95-3.83 7.59-6.69 8.38a2.37 2.37 0 0 0-1.21.67c-7.17 1-14.34-.67-20.85-7.23a3.1 3.1 0 0 0-4.31 0c-8.21 7-7.78 16.65-13.55 24.55-4.5 3.59-20.85-1.15-19 2.25a13.58 13.58 0 0 0 6 5.47 37.62 37.62 0 0 0-6.32 2.25c-8.75 4.38-12.22 11.67-24.07 5.65a18.69 18.69 0 0 1-4-5.59c-1.64-3.52-6.93-.42-5.29 3.1a26.67 26.67 0 0 0 4 6c.85 16.22.42 34.27-16.41 42.6-14.1 6.93-29.36 3.16-43-2.92a47.57 47.57 0 0 0 18.78 18c9.91 5.23 20.36 5.24 30.93 3.83a17.47 17.47 0 0 0-1.07 2.27c-.38 1 .75 1.64 1.58 1.31a1.16 1.16 0 0 0 1.2.12 12 12 0 0 0 5.24-4.79l4.11-.73a31.21 31.21 0 0 0 13.53-6 2.3 2.3 0 0 0 2.56 1.62 1.63 1.63 0 0 0 .8-.34 1.15 1.15 0 0 0 1.13-1.11c.06-1.43 0-2.87 0-4.3a36.59 36.59 0 0 0 7.06-11.91c9.18 5.22 20 1.52 24.56-7.66a28.1 28.1 0 0 0 8.28.56 7.36 7.36 0 0 0 .49 2.34 1.22 1.22 0 0 0 1.29.77 1 1 0 0 0 1.45-.1 11.1 11.1 0 0 0 2.08-4 27.25 27.25 0 0 0 12.66-8.22c5.17-5.84 5.59-11.25 8-18.29s.43-4.75 7-5.54c3.47-.48 6.87-.36 10.27-1a50 50 0 0 0 11.8-3.72 16.75 16.75 0 0 0 4.1 1.76 1.18 1.18 0 0 0 1.65-1.08 2.46 2.46 0 0 0-1.18-2.15 3.57 3.57 0 0 0-.57-.24l3.25-1.53a10.88 10.88 0 0 0 .54 1.15 1.17 1.17 0 0 0 2.12-.28 7.9 7.9 0 0 0 .5-2.28l.77-.34c4.55-1.88 11.06-6.32 16.52-2.31 1.58 1.16 3 5.59 4.2 7.29a36.13 36.13 0 0 0 12.19 10.35 35.18 35.18 0 0 0 4.11 6.38 1.17 1.17 0 0 0 1.94-.52 9.86 9.86 0 0 0-.14-3.49 88.64 88.64 0 0 0 9.82 1.53 6 6 0 0 0 1.86 4.94 1.17 1.17 0 0 0 1.94-.51 11.41 11.41 0 0 0 .16-3.77 19.08 19.08 0 0 1 8.47 3.81c10.82 9 18.26 20.15 33.65 21.22a20.64 20.64 0 0 0 7.61 3.08c1 .19 2.12-1.14 1.13-1.94a21.39 21.39 0 0 0-1.89-1.36ZM784.09 365.86a25.84 25.84 0 0 0-7.22-11.56 3.11 3.11 0 0 0-5 1.42 2.72 2.72 0 0 0-.42 2.47 19.16 19.16 0 0 0 8.23 11.1c2.16 1.44 5.18-.95 4.41-3.43ZM762.91 396.71a14.22 14.22 0 0 0-11.91-7.78c-3.81-.3-3.85 5.46-.23 6a2.53 2.53 0 0 0 .52 1.55 11 11 0 0 0 9 4.79 3.07 3.07 0 0 0 2.62-4.56Z" class="colorabb7c2 svgShape"></path><path fill="#c6d0db" d="M786.66 435.08a32.32 32.32 0 0 0-6-10.58c-1-1.14-2.61.51-1.65 1.64.38.44.71.91 1 1.36a1.11 1.11 0 0 0-.83 1.09 9.66 9.66 0 0 0 6 7.92c.87.35 1.75-.65 1.48-1.43ZM736.19 459.77a8.21 8.21 0 0 0-2.58-1.49 1.19 1.19 0 0 0-1.33-1.7l-6.72 1.78a1.17 1.17 0 0 0-.51 1.94 10 10 0 0 0 10.95 1.3 1.18 1.18 0 0 0 .19-1.83ZM763.41 456.46a1.17 1.17 0 0 0-2.24 0c-.28 1-.6 1.88-.94 2.81a1 1 0 0 0-1.22.09 1.19 1.19 0 0 0-2 .76 24.42 24.42 0 0 0 0 3.78 13 13 0 0 0 .12 2.4c.14 1 1.35 1 1.94.52.22-.18.41-.37.62-.56l.4-.12a2.73 2.73 0 0 0 1.76-2.35 8.78 8.78 0 0 0 1.56-7.33Z" class="colorc6d0db svgShape"></path></g></g><g clip-path="url(#c)" fill="#000000" class="color000 svgShape"><path fill="#c6d0db" d="M-121.97 265.08H97.88v505.03h-219.85z" class="colorc6d0db svgShape"></path><path fill="#abb7c2" d="M40.39 289.27h34.34v13.46H40.39zM-17.42 289.27h34.34v13.46h-34.34zM40.39 338.27h34.34v13.46H40.39zM-17.42 338.27h34.34v13.46h-34.34zM40.39 387.26h34.34v13.46H40.39zM-17.42 411.76h34.34v13.46h-34.34zM40.39 436.25h34.34v13.45H40.39zM-17.42 460.75h34.34v13.46h-34.34zM40.39 485.25h34.34v13.45H40.39zM40.39 530.52h34.34v13.46H40.39zM-17.42 530.52h34.34v13.46h-34.34zM40.39 579.52h34.34v13.46H40.39zM-17.42 579.52h34.34v13.46h-34.34zM40.39 628.51h34.34v13.45H40.39zM-17.42 653.01h34.34v13.46h-34.34zM40.39 677.51h34.34v13.46H40.39zM-17.42 702h34.34v13.46h-34.34zM40.39 726.5h34.34v13.46H40.39z" class="colorabb7c2 svgShape"></path><path fill="#ffffff" d="M-317.97 43.43H282.1v684.19h-600.07z" opacity=".35" class="colorfff svgShape"></path><path fill="#ffffff" d="M-218.72 728.8h-46.58l249.66-664h46.57l-249.65 664z" opacity=".5" class="colorfff svgShape"></path><path fill="#ffffff" d="M81.33 728.8H58.05l214.04-592.71v47.75L81.33 728.8z" opacity=".6" class="colorfff svgShape"></path><path fill="#ffffff" d="M307.13 180.38v-7.83h-21.56V49.14H-927.76V64.8h13.08v5.53h387v102.22h-400v7.83h400V381.3h-400v7.83h400v200.92h-400v7.83h400V728.8h-386.88v4.52h-13.2v18.12H285.57V597.88h21.56v-7.83h-21.56V389.13h21.56v-7.83h-21.56V180.38ZM-314.5 389.13h186.9v200.92h-186.9Zm0-7.83V180.38h186.9V381.3Zm0-208.75V70.33h186.9v102.22Zm0 425.33h186.9V728.8h-186.83v4.52h-.07Zm200 130.92V597.88H72.42V728.8Zm0-138.75V389.13H72.42v200.92Zm0-208.75V180.38H72.42V381.3Zm0-208.75V70.33H72.42v102.22Zm200-102.22h186.94v102.22H85.55Zm-600.13 0h186.9v102.22h-186.9Zm0 110.05h186.9V381.3h-186.9Zm0 208.75h186.9v200.92h-186.9Zm0 208.75h186.9v135.44h-.07v-4.52h-186.78Zm787 135.44h-.07v-4.52H85.55V597.88h186.89Zm0-143.27H85.55V389.13h186.89Zm0-208.75H85.55V180.38h186.89Z" class="colorfff svgShape"></path></g><path fill="#e7ebef" d="M362.28 98.51c93.27 18.37 140.88 124 291.08 218s117.13 461-120.08 401.16c-226.3-57.11-236.77-52.6-385-47.32-185.49 6.59-81.15-629.99 214-571.84ZM615.23 253.35c-43.77-34.83-80.23-95.62-59.5-154.19s63.53 50.45 98 86.77c49.8 52.55 53.11 140.32-38.5 67.42Z" class="colore7ebef svgShape"></path><path fill="#010101" d="M73.92 724.29h647.21v4.51H73.92z" class="color010101 svgShape"></path><g clip-path="url(#d)" fill="#000000" class="color000 svgShape"><path fill="#c6d0db" d="M205.87 288.92v-24.23h40.18V148.91h11.08v115.78h43.28v24.23h23.18v485.45H156.41V288.92h49.46z" class="colorc6d0db svgShape"></path><path fill="#abb7c2" d="M156.41 288.92h23.18V725.6h-23.18z" class="colorabb7c2 svgShape"></path><path fill="#c6d0db" d="M240 404.56h167.18v369.81H240z" class="colorc6d0db svgShape"></path><path fill="#abb7c2" d="M240 404.56h23.18v369.81H240zM359.87 420.31h23.99v9.96h-23.99zM319.48 420.31h23.99v9.96h-23.99zM359.87 456.56h23.99v9.96h-23.99zM319.48 456.56h23.99v9.96h-23.99zM279.09 456.56h23.99v9.96h-23.99zM359.87 492.82h23.99v9.96h-23.99zM279.09 492.82h23.99v9.96h-23.99zM319.48 510.95h23.99v9.96h-23.99zM359.87 529.07h23.99v9.96h-23.99zM319.48 547.2h23.99v9.96h-23.99zM359.87 565.32h23.99v9.96h-23.99zM279.09 565.32h23.99v9.96h-23.99zM359.87 598.83h23.99v9.96h-23.99zM319.48 598.83h23.99v9.96h-23.99zM359.87 635.08h23.99v9.96h-23.99zM319.48 635.08h23.99v9.96h-23.99zM279.09 635.08h23.99v9.96h-23.99zM359.87 671.33h23.99v9.96h-23.99zM279.09 671.33h23.99v9.96h-23.99zM319.48 689.46h23.99v9.96h-23.99zM279.09 689.46h23.99v9.96h-23.99zM359.87 707.59h23.99v9.96h-23.99zM319.48 725.71h23.99v9.96h-23.99zM359.87 743.84h23.99v9.96h-23.99zM279.09 743.84h23.99v9.96h-23.99z" class="colorabb7c2 svgShape"></path><path fill="#c6d0db" d="M640.02 404.56H807.2v369.81H640.02z" class="colorc6d0db svgShape"></path><path fill="#abb7c2" d="M640.02 404.56h23.18v369.81h-23.18z" class="colorabb7c2 svgShape"></path><path fill="#c6d0db" d="M402.53 228.66h224.31v545.71H402.53z" class="colorc6d0db svgShape"></path><path fill="#abb7c2" d="M402.53 228.66h23.18v545.71h-23.18zM568.18 254.8h35.03v14.54h-35.03zM509.2 254.8h35.03v14.54H509.2zM568.18 307.74h35.03v14.54h-35.03zM509.2 307.74h35.03v14.54H509.2zM450.22 307.74h35.03v14.54h-35.03zM568.18 360.68h35.03v14.54h-35.03zM450.22 360.68h35.03v14.54h-35.03zM509.2 387.15h35.03v14.54H509.2zM568.18 413.61h35.03v14.54h-35.03zM509.2 440.09h35.03v14.54H509.2zM568.18 466.56h35.03v14.54h-35.03zM450.22 466.56h35.03v14.54h-35.03zM568.18 515.48h35.03v14.54h-35.03zM509.2 515.48h35.03v14.54H509.2zM568.18 568.42h35.03v14.54h-35.03zM509.2 568.42h35.03v14.54H509.2zM450.22 568.42h35.03v14.54h-35.03zM568.18 621.36h35.03v14.54h-35.03zM450.22 621.36h35.03v14.54h-35.03zM509.2 647.83h35.03v14.54H509.2zM450.22 647.83h35.03v14.54h-35.03zM568.18 674.3h35.03v14.54h-35.03zM509.2 700.77h35.03v14.54H509.2zM568.18 727.24h35.03v14.54h-35.03zM450.22 727.24h35.03v14.54h-35.03z" class="colorabb7c2 svgShape"></path><path fill="#c6d0db" d="M755.2 269.34h219.85v505.03H755.2z" class="colorc6d0db svgShape"></path><path fill="#abb7c2" d="M755.2 269.34h22.72v505.03H755.2z" class="colorabb7c2 svgShape"></path><path fill="#c6d0db" d="M44.7 429.9h141.59v344.47H44.7z" class="colorc6d0db svgShape"></path><path fill="#abb7c2" d="M44.7 429.9h14.63v344.47H44.7zM149.26 446.4h22.11v9.18h-22.11zM112.03 446.4h22.11v9.18h-22.11zM149.26 479.82h22.11V489h-22.11zM112.03 479.82h22.11V489h-22.11zM74.8 479.82h22.11V489H74.8zM149.26 513.23h22.11v9.18h-22.11zM74.8 513.23h22.11v9.18H74.8zM112.03 529.94h22.11v9.18h-22.11zM149.26 546.65h22.11v9.18h-22.11zM112.03 563.36h22.11v9.18h-22.11zM149.26 580.07h22.11v9.18h-22.11zM74.8 580.07h22.11v9.18H74.8zM149.26 610.95h22.11v9.18h-22.11zM112.03 610.95h22.11v9.18h-22.11zM149.26 644.37h22.11v9.18h-22.11zM112.03 644.37h22.11v9.18h-22.11zM74.8 644.37h22.11v9.18H74.8zM149.26 677.78h22.11v9.18h-22.11zM74.8 677.78h22.11v9.18H74.8zM112.03 694.49h22.11v9.18h-22.11zM74.8 694.49h22.11v9.18H74.8zM149.26 711.2h22.11v9.18h-22.11zM112.03 727.91h22.11v9.18h-22.11zM149.26 744.62h22.11v9.18h-22.11zM74.8 744.62h22.11v9.18H74.8z" class="colorabb7c2 svgShape"></path><path fill="#ffffff" d="M-44.02 61.22h600.07v684.19H-44.02z" opacity=".35" class="colorfff svgShape"></path><path fill="#ffffff" d="M162.56 733.05h-46.57l249.66-664h46.57l-249.66 664zM80.33 733.05H57.04l249.66-664h23.29l-249.66 664zM358.38 733.05h-23.29l214.04-592.71v47.75L358.38 733.05z" opacity=".5" class="colorfff svgShape"></path><path fill="#ffffff" d="M559.2 47.68h600.07v684.18H559.2z" opacity=".35" class="colorfff svgShape"></path><path fill="#ffffff" d="M658.44 733.05h-46.57l249.66-664h46.57l-249.66 664zM576.21 733.05h-23.29l249.66-664h23.29l-249.66 664z" opacity=".5" class="colorfff svgShape"></path><path fill="#ffffff" d="M1184.3 184.63v-7.83h-21.56V53.39H-50.59v15.66h13.07v5.53h387V176.8h-400v7.83h400v200.92h-400v7.83h400V594.3h-400v7.83h400v130.92H-37.39v4.53h-13.2v18.11h1213.32V602.13h21.56v-7.83h-21.56V393.38h21.56v-7.83h-21.56V184.63ZM562.67 393.38h186.89V594.3H562.67Zm0-7.83V184.63h186.89v200.92Zm0-208.75V74.58h186.89V176.8Zm0 425.33h186.89v130.92H562.73v4.53h-.06Zm200 130.92V602.13h186.9v130.92Zm0-138.75V393.38h186.9V594.3Zm0-208.75V184.63h186.9v200.92Zm0-208.75V74.58h186.9V176.8Zm200-102.22h186.89V176.8H962.72Zm-600.13 0h186.94V176.8H362.59Zm0 110.05h186.94v200.92H362.59Zm0 208.75h186.94V594.3H362.59Zm0 208.75h186.94v135.45h-.07v-4.53H362.59Zm787 135.45h-.07v-4.53H962.72V602.13h186.89Zm0-143.28H962.72V393.38h186.89Zm0-208.75H962.72V184.63h186.89Z" class="colorfff svgShape"></path></g><path fill="#2364ec" d="M363.82 159.07a48.74 48.74 0 1 1 84.74 33.21c-9.7 10.62-16.72 24.31-16.83 38.7v1.45l-39.4-.29v-1.3c.11-14.44-6.72-28.31-16.29-39.14a48.49 48.49 0 0 1-12.22-32.63Z" class="colorf58132 svgShape"></path><path fill="#010101" d="M399.92 195.19c0-.11-2.47-10.74-4.19-21.35a130 130 0 0 1-1.67-14 8.38 8.38 0 0 1-2.76-1.29c-7.53-5.26-.55-16-.25-16.51a1.22 1.22 0 0 1 1.52-.14c.6.29.89.83.65 1.2-1.86 2.81-5.58 10.89-.57 14.38a5 5 0 0 0 1.36.7c-.11-6.65 1.46-6.89 2.38-7a4 4 0 0 1 3.66 1.17c1.69 1.95.5 5.77-2.23 7.16a5.31 5.31 0 0 1-1.44.48c.43 8.2 2.82 22.24 5.84 35.38.11.47-.32.8-1 .75a1.87 1.87 0 0 1-.48-.11 1.33 1.33 0 0 1-.82-.82Zm-2.46-42.31c-.82.21-1.17 2.06-1.14 5.07 2-1.14 2.67-4 1.85-5a.52.52 0 0 0-.11-.07 1.37 1.37 0 0 0-.6 0ZM423.79 196.21a2.05 2.05 0 0 1-.48.1c-.63 0-1.06-.3-.94-.77 3.22-13.09 5.83-27.09 6.38-35.29a4.69 4.69 0 0 1-1.42-.49c-2.71-1.44-3.85-5.27-2.13-7.2a4 4 0 0 1 3.68-1.11c.91.16 2.48.42 2.27 7.06a4.8 4.8 0 0 0 1.37-.67c5.06-3.41 1.47-11.55-.34-14.39-.24-.37.05-.91.66-1.19a1.22 1.22 0 0 1 1.52.16c.29.46 7.1 11.37-.51 16.51a8.34 8.34 0 0 1-2.78 1.25 128.59 128.59 0 0 1-1.88 13.92c-1.88 10.58-4.49 21.18-4.51 21.28a1.37 1.37 0 0 1-.89.83Zm3.39-43.1a.26.26 0 0 0-.11.07c-.83.93-.17 3.84 1.78 5 .07-3-.25-4.86-1.06-5.09a1.42 1.42 0 0 0-.61.02Z" class="color010101 svgShape"></path><path fill="#010101" d="m400 194 1.18-1a17.62 17.62 0 0 1 22.35.17l1.17 1-.29 39.38-24.7-.18Zm22.39 1.25-.34-.28a15.31 15.31 0 0 0-19.41-.15l-.35.28-.26 36 20.1.15Z" class="color010101 svgShape"></path><path fill="#010101" d="m391.58 235.14 40.84.3a3 3 0 0 0 3-3 3 3 0 0 0-3-3l-40.84-.3a3 3 0 0 0-3 3 3 3 0 0 0 3 3Z" class="color010101 svgShape"></path><path fill="#abb7c2" d="m393.71 241.19 36.48.27a2.87 2.87 0 0 0 2.71-3 2.87 2.87 0 0 0-2.67-3l-36.47-.27a2.86 2.86 0 0 0-2.71 3 2.86 2.86 0 0 0 2.66 3Z" class="colorabb7c2 svgShape"></path><path fill="#010101" d="m393.66 247.23 36.48.26a2.86 2.86 0 0 0 2.71-3 2.86 2.86 0 0 0-2.67-3l-36.47-.26a2.85 2.85 0 0 0-2.71 3 2.87 2.87 0 0 0 2.66 3Z" class="color010101 svgShape"></path><path fill="#abb7c2" d="m393.62 253.26 36.47.27a2.86 2.86 0 0 0 2.71-3 2.87 2.87 0 0 0-2.66-3l-36.48-.26a2.87 2.87 0 0 0-2.71 3 2.86 2.86 0 0 0 2.67 2.99Z" class="colorabb7c2 svgShape"></path><path fill="#010101" d="m393.57 259.29 36.48.27a2.87 2.87 0 0 0 2.71-3 2.86 2.86 0 0 0-2.67-3l-36.47-.27a2.86 2.86 0 0 0-2.71 3 2.85 2.85 0 0 0 2.66 3Z" class="color010101 svgShape"></path><path fill="#abb7c2" d="m421.4 265.54-19.28-.15a6 6 0 0 1-6-6.07l31.33.24a6 6 0 0 1-6.05 5.98Z" class="colorabb7c2 svgShape"></path><path fill="#2364ec" d="M412.27 96a3.47 3.47 0 0 1-2.65-3.4l.15-19.5a3.47 3.47 0 1 1 6.94.06l-.15 19.5a3.47 3.47 0 0 1-3.5 3.44 3 3 0 0 1-.79-.1ZM379.26 102.25a3.47 3.47 0 0 1-2.13-1.54l-10.47-16.9a3.47 3.47 0 0 1 5.9-3.66L383 97.05a3.47 3.47 0 0 1-3.77 5.2ZM356.92 127.83a3.29 3.29 0 0 1-.6-.21l-18.19-8.14a3.47 3.47 0 0 1 2.84-6.34l18.18 8.15a3.47 3.47 0 0 1-2.23 6.54ZM332.42 169.39a3.47 3.47 0 0 1 .7-6.84l16.49-.59a3.47 3.47 0 1 1 .25 6.94l-16.5.59a3.66 3.66 0 0 1-.94-.1ZM447.62 102.78a3.36 3.36 0 0 1-1.05-.46 3.47 3.47 0 0 1-1.05-4.79l10.73-16.73a3.47 3.47 0 0 1 5.84 3.74l-10.72 16.73a3.47 3.47 0 0 1-3.75 1.51ZM469.58 128.69a3.47 3.47 0 0 1-.56-6.56l18.31-7.86a3.47 3.47 0 1 1 2.74 6.38l-18.31 7.86a3.43 3.43 0 0 1-2.18.18ZM476.93 169.79a3.47 3.47 0 0 1 1-6.84l16.49.84a3.47 3.47 0 0 1-.35 6.93l-16.49-.84a3.51 3.51 0 0 1-.65-.09Z" class="colorf58132 svgShape"></path><path fill="#abb7c2" d="M540.78 706.51h-7.16a4.75 4.75 0 0 1-4.75-4.76v-33.34h16.66v33.34a4.76 4.76 0 0 1-4.75 4.76Z" class="colorabb7c2 svgShape"></path><path fill="#abb7c2" d="M635.57 715.94a16.16 16.16 0 0 0-10.3-20.39l-75.5-24.84v-44.87h-25.15v45.23l-74.44 24.48a16.15 16.15 0 0 0-10.3 20.39l97.84-32.18Z" class="colorabb7c2 svgShape"></path><path fill="#abb7c2" d="M551.93 673.47h-28.41v-54.3a8.11 8.11 0 0 1 8.11-8.12h12.18a8.11 8.11 0 0 1 8.12 8.11Z" class="colorabb7c2 svgShape"></path><path fill="#010101" d="M463.83 710.1a15.91 15.91 0 1 0-15.91 15.9 15.91 15.91 0 0 0 15.91-15.9Z" class="color010101 svgShape"></path><path fill="#abb7c2" d="M460.37 710.1a12.45 12.45 0 1 0-12.45 12.45 12.45 12.45 0 0 0 12.45-12.45Z" class="colorabb7c2 svgShape"></path><path fill="#010101" d="M553.11 710.1A15.91 15.91 0 1 0 537.2 726a15.92 15.92 0 0 0 15.91-15.9Z" class="color010101 svgShape"></path><path fill="#abb7c2" d="M549.65 710.1a12.45 12.45 0 1 0-12.45 12.45 12.46 12.46 0 0 0 12.45-12.45Z" class="colorabb7c2 svgShape"></path><path fill="#010101" d="M645 710.1a15.91 15.91 0 1 0-15.86 15.9A15.91 15.91 0 0 0 645 710.1Z" class="color010101 svgShape"></path><path fill="#abb7c2" d="M641.59 710.1a12.46 12.46 0 1 0-12.45 12.45 12.46 12.46 0 0 0 12.45-12.45Z" class="colorabb7c2 svgShape"></path><path fill="#2364ec" d="M638.92 589.66a12.65 12.65 0 0 1-12.66 12.66H520.77l-7.58-2.32c-19-6.06-67.67-21.9-70.92-27-4-6.33-13.65-95.74-13.65-95.74h105.49a12.68 12.68 0 0 1 13.64 11.63l2.45 55.93A35.18 35.18 0 0 0 585.09 577h41.17a12.66 12.66 0 0 1 12.66 12.66Z" class="colorf58132 svgShape"></path><path fill="#010101" d="M559.56 618.44H518c-6.09 0-11-8.76-11-19.57h63.6c0 10.81-4.94 19.57-11.04 19.57Z" class="color010101 svgShape"></path><path fill="#2364ec" d="M638.92 589.66a12.65 12.65 0 0 1-12.66 12.66H513.19V577h113.07a12.66 12.66 0 0 1 12.66 12.66Z" class="colorf58132 svgShape"></path><path fill="#010101" d="M520.76 602.32h-41.18a60.61 60.61 0 0 1-60.12-55.55L417 490.85a12.66 12.66 0 0 1 25.25-2l2.45 55.93A35.17 35.17 0 0 0 479.58 577h41.18a12.67 12.67 0 1 1 0 25.33Z" class="color010101 svgShape"></path><path fill="#ffffff" d="M654.3 680.33c-1.82-1.17-15.19 4.8-15 5.67.43 2.69 3 12.65 4.79 13.5s15.48-3.85 14.93-6.41c-.53-2.21-2.97-11.64-4.72-12.76Z" class="colorfff svgShape"></path><path fill="#010101" d="M644.6 700.27a2 2 0 0 1-.86-.14c-2.43-1.17-5-13-5.19-14-.09-.58.44-1 1-1.34 2.31-1.5 13-6.39 15.12-5 2.31 1.48 5 13.08 5 13.2.24 1.12-.91 2-1.29 2.33-2.82 2.16-10.79 4.95-13.78 4.95Zm-4.6-14.11c.65 3.67 3.19 12.14 4.37 12.71s10.5-2.39 13.36-4.88c.58-.51.57-.75.57-.75-.81-3.75-3.09-11.49-4.36-12.32-1.39-.67-12.32 3.81-13.94 5.24Z" class="color010101 svgShape"></path><path fill="#010101" d="M642.07 696.85s-3.33 11.28 3.64 16.93c0 0 33.81-9.59 43.33-14.53 0 0-3.85-12.35-12.82-10.51a134.58 134.58 0 0 0-17.48 5s-8.14 7.8-16.67 3.11ZM530.49 556.93c8.79 17.37 40.2 24.44 63.51 30.58 14 3.7 25 7.07 26.53 12.16 5.81 19.88 9.91 72.17 15.42 90.47 2 2.28 6.11 2.31 10.41 1.52a69.23 69.23 0 0 0 14.37-4.73c-1.26-40.76 2.11-78.77-4.43-107-11-47.5-82.87-69.2-82.87-69.2-12.62-13.86-58.33 15.74-42.94 46.2Z" class="color010101 svgShape"></path><path fill="#ffffff" d="M580.75 695.52c-.89-2-15.35-4.27-15.71-3.47-1.11 2.49-4.36 12.26-3.36 13.93s15.08 5.23 16 2.78c.81-2.12 3.92-11.34 3.07-13.24Z" class="colorfff svgShape"></path><path fill="#010101" d="M575.16 710.29c-4.4 0-13.13-2.38-14.08-3.95-1.38-2.3 2.88-13.59 3.32-14.57.24-.54.9-.58 1.56-.58 2.75 0 14.41 1.77 15.43 4 1.11 2.49-3 13.67-3 13.78-.41 1.07-1.87 1.2-2.35 1.24-.3.06-.58.08-.88.08Zm-9.59-17.7c-1.46 3.43-4 11.91-3.28 13 .72 1 10.11 3.74 13.86 3.2.76-.1.88-.31.88-.31 1.37-3.59 3.68-11.32 3.08-12.71-.78-1.26-12.36-3.51-14.54-3.18ZM553.51 547.71c7.43 7.73 16.28 14 23.92 21.54A221.69 221.69 0 0 1 594 587.51c14 3.7 25 7.07 26.53 12.16 5.81 19.88 9.91 72.17 15.42 90.47 2 2.28 6.11 2.31 10.41 1.52a64.45 64.45 0 0 0 .86-9.58 117.32 117.32 0 0 0-2.45-28.28c-3.7-18.53-9.38-38.15-17.21-55.35-4.39-9.65-8.65-18-10.79-28.51-1.4-6.83-3.08-13.57-7.34-19.29-10.77-14.3-29.86-18.3-44-28.07a1.66 1.66 0 0 0-.43-.2 1.36 1.36 0 0 0-1.78-1.26c-13.84 3.88-20.54 15.26-9.71 26.59Z" class="color010101 svgShape"></path><path fill="#010101" d="M561.48 702.69s-9 7.63-6.18 16.17c0 0 33.54 10.41 44.22 11.48 0 0 3.52-12.45-5-15.8a133.7 133.7 0 0 0-17.39-5.33s-11.07 2.06-15.65-6.52ZM486.59 558.67c14 27.82 68.87 19.89 72.83 33.43 5.82 19.9 9.58 91.9 2.08 103.42a15.76 15.76 0 0 0 2.32 2.08c6.21 4.56 17.07 6.87 17.07 6.87 12.65-27.71 25.27-81.78 27.19-113.13 3-48.62-78.55-78.91-78.55-78.91-10.3-11.26-42.67 6.41-45.81 29.83a27.52 27.52 0 0 0 2.87 16.41Z" class="color010101 svgShape"></path><path fill="#010101" d="M486.59 558.67c14 27.82 68.87 19.89 72.83 33.43 5.82 19.9 9.58 91.9 2.08 103.42a15.76 15.76 0 0 0 2.32 2.08 86.22 86.22 0 0 0 12.81-46c0-9.08-.89-18.13-1.52-27.19s-.63-18.76-2.44-27.81c-3-15.36-14.37-19.49-28.41-22.23-19.78-3.86-43.83-9.34-51.29-30.62a1.66 1.66 0 0 0-.7-3 15.74 15.74 0 0 0-8.55 1.58 27.52 27.52 0 0 0 2.87 16.34Z" class="color010101 svgShape"></path><path fill="#ffffff" d="M586.94 515.19c-.49 1.55-22.08 13.91-34.12 18.43-20.89 7.85-56.2 14-65.25 12.24-3.7-.69-6.08-1.69-6.64-2.87-1.75-3.77 4.28-40.42 3.55-64.8-.13-4.72-.23-9.51-.23-14.2-.13-24.51 1.58-47.46 7.13-51.72 1.26-1 2.71-2 4.33-3.11a81.53 81.53 0 0 1 8.39-5 78.69 78.69 0 0 1 17.27-6.67 71.73 71.73 0 0 1 34.49-.53 71.27 71.27 0 0 1 9.51 2.84c.76.27 1.52.57 2.32.86 10.83 4.36 9.28 27.94 7.53 47.73-.79 9.18-1.62 17.54-1.29 22.76a45.68 45.68 0 0 0 .66 5.22c2.47 14.57 10.53 28.22 12.35 38.82Z" class="colorfff svgShape"></path><path fill="#010101" d="M491.57 546.84a23.25 23.25 0 0 1-4.14-.29c-4.07-.76-6.47-1.86-7.13-3.27-.84-1.8-.24-8.65 1-21.61 1.28-13.45 2.87-30.19 2.48-43.45-.16-5.64-.23-10.16-.23-14.23-.12-21.17 1.07-47.42 7.41-52.28 1.12-.89 2.47-1.86 4.36-3.13a81.71 81.71 0 0 1 8.45-5.06 79.77 79.77 0 0 1 17.43-6.73 72.32 72.32 0 0 1 34.81-.53l.55.16a68.53 68.53 0 0 1 9.09 2.74c.53.18 1.07.39 1.63.6l.68.26c10.94 4.4 9.94 26.34 8 48.44l-.25 3c-.71 8.1-1.32 15.1-1 19.71a44.67 44.67 0 0 0 .65 5.12c1.31 7.84 4.33 15.57 7 22.4 2.31 5.91 4.49 11.5 5.33 16.43v.33c-.7 2.2-23.94 14.9-34.54 18.88-18.76 6.96-48.66 12.51-61.58 12.51Zm48.13-151a71.7 71.7 0 0 0-18.15 2.35 78.23 78.23 0 0 0-17.13 6.61 80.09 80.09 0 0 0-8.31 5c-1.87 1.26-3.19 2.2-4.29 3.08-4.53 3.47-7 22.12-6.87 51.17 0 4.05.07 8.56.23 14.19.4 13.34-1.2 30.13-2.49 43.63-1 10.38-1.84 19.34-1.13 20.88.16.34 1.09 1.53 6.14 2.48 8.89 1.68 43.94-4.34 64.87-12.2 11.52-4.33 31.7-15.83 33.63-17.94-.85-4.72-3-10.15-5.21-15.88-2.68-6.89-5.73-14.7-7.06-22.66a44.43 44.43 0 0 1-.67-5.28c-.3-4.72.32-11.76 1-19.92l.26-3c1.41-15.95 3.77-42.64-7.1-47l-.67-.25c-.54-.21-1.08-.41-1.61-.59a68.61 68.61 0 0 0-9.43-2.82l-.55-.15a71.45 71.45 0 0 0-15.46-1.74Z" class="color010101 svgShape"></path><path fill="#abb7c2" d="M591.56 515.74c-.5 1.55-28.91 14.86-45 21.47-20.63 8.47-49.93 10.37-59 8.65-3.7-.69-6.08-1.69-6.64-2.87-1.75-3.77 4.28-40.42 3.55-64.8-.13-4.72-.23-9.51-.23-14.2-.13-24.51 1.58-47.46 7.13-51.72 1.26-1 2.71-2 4.33-3.11a81.53 81.53 0 0 1 8.39-5 78.69 78.69 0 0 1 17.27-6.67 71.73 71.73 0 0 1 34.49-.53 71.27 71.27 0 0 1 9.51 2.84c.76.27 1.52.57 2.32.86C578.55 405 579 429.24 577.26 449c-.8 9.2 16.68 65.65 14.3 66.74Z" class="colorabb7c2 svgShape"></path><path fill="#010101" d="M484.82 439.65s-.67 13-.58 22.91l18.81-22.91-15.05-12.5Z" class="color010101 svgShape"></path><path fill="#ffffff" d="M546.35 384.81v10.6s2.5 4.59 0 5.09c-5.51 1.1-13.45-5.09-13.45-5.09v-16.17Z" class="colorfff svgShape"></path><path fill="#010101" d="M545 401.33c-5.54 0-12.19-5.13-12.49-5.36l-.28-.21v-17.57l14.86 6.15v10.89c.42.81 1.6 3.33.88 4.86a2 2 0 0 1-1.45 1.1 7.61 7.61 0 0 1-1.52.14Zm-11.36-6.27c1.41 1 8 5.63 12.61 4.75a.53.53 0 0 0 .45-.31c.36-.75-.33-2.65-.93-3.76l-.08-.33v-10.13l-12-5Z" class="color010101 svgShape"></path><path fill="#ffffff" d="M529.42 360.75s-4.34 10.33-5 19.75c-.48 6.68 12.19 14.71 21.52 4.77s5.72-24.06 5.72-24.06Z" class="colorfff svgShape"></path><path fill="#010101" d="M535.94 390.64a13.3 13.3 0 0 1-5.39-1.15c-4.28-1.87-7.09-5.59-6.84-9 .67-9.42 4.89-19.54 5.07-20l.22-.49 23.24.48.13.52c.15.59 3.59 14.6-5.89 24.71a14.39 14.39 0 0 1-10.54 4.93Zm-6.05-29.17c-.82 2-4.2 11-4.78 19.08-.21 2.82 2.32 6.05 6 7.65 4.93 2.17 10.28.88 14.31-3.41 8-8.5 6.18-20.3 5.66-22.89Z" class="color010101 svgShape"></path><path fill="#010101" d="M521.19 358.27c4.87 6.75 16.41 6.71 25 6.31-.11.89-.1 1.83-.17 2.55-.29 3.21-1.82 7.2-.48 10.34a4.05 4.05 0 0 0 5.33 2.3 3.44 3.44 0 0 0 2.15-2.73c3.47-5.63 3.36-15.74-.55-20.47-2.47-3-5.94-3.72-9.61-4.24-3-.44-5.41-.74-8.14-2.21-1.63-.88-2.82-1.8-4.67-2.17-6.86-1.35-13.85 3.39-8.86 10.32Z" class="color010101 svgShape"></path><path fill="#ffffff" d="M491 395.35c-1.95-2-6.78-6.1-12.19-10.89-12.58-11.15-29.06-26.3-34.51-39.77-3.61-8.92-13.63-23.74-16.55-30-1.5-3.23-2.94-6-4.25-8.33a21.38 21.38 0 0 0 1.47-2.1c1.57-1.82 5.38-6.32 5.68-8.82.16-1.36-.41-3.1-2-1.95a7.64 7.64 0 0 0-2.1 3.08v.05c-.08-5.38-1.7-11.35-5.95-14.31-2.74-1.92-4-.16-2.44 2.45 3.05 5.05 3.61 9.46-.48 1.66-.83-1.57-3.31-4.41-4.49-3.8-2.49 1.32 1.18 6.54 2.48 9.05 0 2.45-4-2.92-5.29-3.36-5.76-2 1.42 8.17 1 8.95-1.28 2.16-5.05-5.48-5.95-1.54-.67 3 5.62 8.43 6.46 10.86.46 1.3.24 2.53.65 3.51.28 3 3.08 33 7.6 53 4.42 19.65 4.51 25.93 23.31 44.78a118.15 118.15 0 0 0 8.67 8.75c.79.73 1.66 1.5 2.57 2.25 6.94 5.93 16.2 12.19 24.78 12.81s17.84-30.05 11.53-36.33Z" class="colorfff svgShape"></path><path fill="#010101" d="M479.67 432.42h-.31c-9-.66-18.68-7.42-25.19-13-.9-.75-1.79-1.53-2.59-2.26-4.24-3.85-7.33-7.27-8.35-8.4l-.34-.38c-17.42-17.48-18.91-24.25-22.5-40.62-.31-1.42-.64-2.92-1-4.5-4.47-19.87-7.25-49.24-7.6-53a6.29 6.29 0 0 1-.31-1.72 7.61 7.61 0 0 0-.31-1.72 17.26 17.26 0 0 0-2.49-3.53c-2.21-2.72-4.49-5.53-4-7.71.08-.34.31-1.37 1.19-1.64 1.06-.31 2.05.66 3.12 1.69a9.08 9.08 0 0 0 1.56 1.29c-.18-.45-.59-1.27-.94-2-1.72-3.38-2.86-5.87-1.8-7.08.79-.91 2.29-.39 2.78-.22a8.75 8.75 0 0 1 2.41 2c.43.41 1 1 1.51 1.42l-.33-.57c-1.34-2.34-3-5.25-2.46-7.14a2.21 2.21 0 0 1 1.12-1.35 1.63 1.63 0 0 1 1.28-.08 7.65 7.65 0 0 1 3.07 2.55c-.63-1.35-.6-2.54.12-3.22.39-.36 1.51-1 3.67.47 4.36 3 5.7 8.64 6.09 12.41a5.43 5.43 0 0 1 1.17-1.22 1.85 1.85 0 0 1 2.12-.3c.92.54 1.11 1.9 1 2.91-.22 1.88-2.13 4.89-5.84 9.18a19.85 19.85 0 0 1-1.17 1.7c1.45 2.63 2.78 5.24 4 8 1.18 2.55 3.63 6.65 6.22 11 3.84 6.44 8.19 13.75 10.34 19.05 5.73 14.17 24.33 30.66 34.32 39.51l4.6 4.05c3.48 3.06 6.23 5.47 7.63 6.88 4.56 4.55 1.55 18.93-2.38 27.56-1.67 3.77-5.15 9.99-9.41 9.99Zm-73.39-137.15a1.47 1.47 0 0 0-.23.6c-.34 1.52 2 4.41 3.72 6.52a17.1 17.1 0 0 1 2.73 3.95 8.33 8.33 0 0 1 .37 2.05 4.93 4.93 0 0 0 .26 1.41l.05.21c.3 3.32 3.09 33 7.58 52.95.36 1.59.69 3.08 1 4.51 3.53 16.09 5 22.74 22.13 39.94l.38.42c1 1.11 4.06 4.49 8.26 8.31.78.71 1.65 1.48 2.55 2.22 6.35 5.43 15.72 12 24.38 12.65 2.62.18 5.7-3.25 8.39-9.17 4.24-9.3 6.27-22.4 2.67-26-1.36-1.36-4.09-3.77-7.56-6.81l-4.6-4c-15-13.27-29.55-27.31-34.69-40-2.11-5.21-6.43-12.46-10.25-18.87-2.72-4.56-5.07-8.51-6.28-11.12-1.32-2.83-2.7-5.54-4.23-8.28l-.23-.41.29-.37a20.71 20.71 0 0 0 1.42-2l.29-.34c4.15-4.84 5.17-7.12 5.3-8.19a1.92 1.92 0 0 0-.31-1.53c-.07-.05-.28 0-.59.23a6.77 6.77 0 0 0-1.87 2.79l-1.3 3.25-.07-3.47c-.05-3-.69-10.29-5.65-13.75-1.06-.74-1.72-.76-1.9-.59s-.21 1 .46 2.11c0 .05 3.15 5.28 2.41 6.56l-.21.36h-.5c-.42 0-1 0-3.41-4.61-.69-1.32-2.35-3.18-3.31-3.48a.6.6 0 0 0-.22 0 .82.82 0 0 0-.42.51c-.38 1.32 1.25 4.17 2.33 6.05.33.58.63 1.1.86 1.55l.08.32a1.22 1.22 0 0 1-.68 1.26c-.91.35-1.92-.58-3.64-2.29a11.65 11.65 0 0 0-1.9-1.67c-1-.35-1.26-.18-1.26-.18-.51.59 1.38 4.31 2 5.53 1.08 2.12 1.37 2.76 1.06 3.3a1.41 1.41 0 0 1-1 .72c-.94.14-1.88-.76-2.87-1.71-.49-.47-1.41-1.35-1.74-1.35Zm8.65-3.46Z" class="color010101 svgShape"></path><path fill="#abb7c2" d="M477.14 380.75c3.65 1.68 26.77 12.67 35.22 28.61 3.84 7.24 7.83 26.56-.95 32.05-14.06 8.79-42.11-6.36-62-18.25 1.49-16.81 12.16-31.89 27.73-42.41Z" class="colorabb7c2 svgShape"></path><path fill="#ffffff" d="M657.59 301.8c-.76-3.84-4.61 3.42-5.79 1.3-.42-.76 6.8-10.37 1.18-8.6-1.24.39-5.24 5.45-5.19 3.08 1.32-2.38 5-7.31 2.64-8.65-1.11-.63-3.59 2-4.43 3.54-4.17 7.41-3.51 3.17-.42-1.61 1.6-2.48.42-4.21-2.29-2.44-4.18 2.73-5.91 8.44-6.14 13.63a7.29 7.29 0 0 0-1.94-3c-1.51-1.16-2.11.51-2 1.83.22 2.42 3.76 6.86 5.23 8.67.38.65.84 1.35 1.36 2.07-1.33 2.22-2.8 4.83-4.34 7.91-3 6-13.08 20-16.82 28.49-5.64 12.84-21.8 27.84-33.94 38.6-5.22 4.63-9.88 8.62-11.77 10.52-6.08 6.06 3 35.67 11.2 35.09s17.22-6.64 23.91-12.36c.88-.73 1.72-1.47 2.49-2.17a117.91 117.91 0 0 0 8.36-8.45c18.15-18.2 17.77-23.92 22.6-42.76 4.93-19.23 8.49-48 8.84-50.95.43-.93.26-2.12.73-3.37.87-2.41 7.09-7.5 6.53-10.37Z" class="colorfff svgShape"></path><path fill="#010101" d="M583.86 432.85c-4.13 0-7.5-6-9.16-9.66-3.79-8.34-6.7-22.24-2.28-26.64 1.33-1.35 4-3.67 7.32-6.6l4.47-3.94c13.7-12.14 28.43-26.2 33.77-38.36 2.22-5.07 6.63-12 10.53-18.1 2.62-4.12 5.09-8 6.31-10.43a117.2 117.2 0 0 1 4.13-7.55 19.48 19.48 0 0 1-1.08-1.67c-3.46-4.25-5.21-7.21-5.38-9-.08-1 .14-2.3 1.06-2.8a1.8 1.8 0 0 1 2.06.36 4.9 4.9 0 0 1 1.06 1.16c.49-3.63 2-8.95 6.24-11.75 2.13-1.4 3.21-.71 3.58-.35.65.65.68 1.75.11 3a7.28 7.28 0 0 1 2.92-2.24 1.63 1.63 0 0 1 1.26.11 2.23 2.23 0 0 1 1.05 1.36c.47 1.85-1.22 4.61-2.59 6.84l-.25.41c.46-.38 1-.88 1.38-1.24a8.39 8.39 0 0 1 2.4-1.86c.48-.16 2-.62 2.7.3 1 1.21-.18 3.58-1.94 6.81-.33.61-.73 1.34-.93 1.78a8.57 8.57 0 0 0 1.47-1.15c1.07-1 2.08-1.89 3.08-1.54s1.06 1.3 1.12 1.63c.42 2.13-1.86 4.78-4.07 7.34a16.39 16.39 0 0 0-2.5 3.33 7.05 7.05 0 0 0-.35 1.65 5.93 5.93 0 0 1-.35 1.65c-.45 3.66-4 31.93-8.85 50.94-.55 2.15-1 4.14-1.49 6-3.49 14.32-5.09 20.85-21.29 37.1l-.32.35c-1 1.09-4 4.39-8.07 8.13-.77.7-1.62 1.45-2.51 2.19-6.27 5.36-15.59 11.89-24.31 12.52Zm54.89-124.09h.08l.2.35a20.81 20.81 0 0 0 1.32 2l.28.37-.24.41c-1.55 2.59-3 5.16-4.32 7.86-1.25 2.49-3.63 6.23-6.38 10.55-3.87 6.07-8.25 12.95-10.43 17.91-5.45 12.42-20.3 26.6-34.12 38.85-1.56 1.38-3.07 2.71-4.48 3.94-3.32 2.92-5.95 5.23-7.25 6.54-3.48 3.47-1.51 16.09 2.57 25.07 2.6 5.7 5.58 8.95 8.08 8.83 8.34-.6 17.39-7 23.51-12.2.87-.72 1.71-1.46 2.46-2.15a112.72 112.72 0 0 0 8-8l.36-.39c15.93-16 17.4-22 20.93-36.45.45-1.85.94-3.84 1.49-6 4.9-19.12 8.44-47.67 8.83-50.87l.06-.21a4.7 4.7 0 0 0 .28-1.34 8.54 8.54 0 0 1 .43-2 16.37 16.37 0 0 1 2.75-3.75c1.71-2 4-4.69 3.76-6.15a1.22 1.22 0 0 0-.22-.59c-.27 0-1.18.83-1.67 1.27-1 .89-1.92 1.74-2.84 1.57a1.33 1.33 0 0 1-1-.73c-.3-.54 0-1.15 1.11-3.18.64-1.17 2.57-4.71 2.09-5.25 0 0-.24-.16-1.2.14a11.79 11.79 0 0 0-1.86 1.56c-1.73 1.6-2.74 2.48-3.61 2.1-.3-.13-.65-.45-.63-1.25l.09-.32c.23-.43.53-.92.87-1.47 1.09-1.78 2.75-4.48 2.42-5.75a.78.78 0 0 0-.38-.49c-.44-.18-2.51 1.55-3.48 3.27-2.46 4.37-3 4.37-3.44 4.37h-.41l-.28-.42c-.69-1.27 2.48-6.23 2.51-6.28.74-1.16.66-1.85.51-2s-.79-.15-1.82.52c-4.88 3.19-5.7 10.21-5.83 13.09l-.15 3.24-1.2-3a6.65 6.65 0 0 0-1.75-2.78c-.29-.23-.48-.26-.53-.24a1.84 1.84 0 0 0-.33 1.45c.11 1 1.01 3.24 4.86 8Z" class="color010101 svgShape"></path><path fill="#abb7c2" d="M586.3 383c-3.53 1.63-25.84 12.24-34 27.61-3.71 7-7.56 25.64.91 30.94 13.57 8.49 40.64-6.14 59.8-17.62-1.39-16.27-11.69-30.82-26.71-40.93ZM289.2 706.51h7.16a4.76 4.76 0 0 0 4.75-4.76v-33.34h-16.67v33.34a4.76 4.76 0 0 0 4.76 4.76Z" class="colorabb7c2 svgShape"></path><path fill="#abb7c2" d="M194.41 715.94a16.16 16.16 0 0 1 10.3-20.39l75.5-24.84v-44.87h25.15v45.23l74.44 24.48a16.15 16.15 0 0 1 10.3 20.39l-97.84-32.18Z" class="colorabb7c2 svgShape"></path><path fill="#abb7c2" d="M278.05 673.47h28.41v-54.3a8.11 8.11 0 0 0-8.11-8.12h-12.19a8.11 8.11 0 0 0-8.11 8.11Z" class="colorabb7c2 svgShape"></path><path fill="#010101" d="M366.15 710.1a15.91 15.91 0 1 1 15.91 15.9 15.91 15.91 0 0 1-15.91-15.9Z" class="color010101 svgShape"></path><path fill="#abb7c2" d="M369.61 710.1a12.45 12.45 0 1 1 12.45 12.45 12.45 12.45 0 0 1-12.45-12.45Z" class="colorabb7c2 svgShape"></path><path fill="#010101" d="M276.87 710.1a15.91 15.91 0 1 1 15.91 15.9 15.91 15.91 0 0 1-15.91-15.9Z" class="color010101 svgShape"></path><path fill="#abb7c2" d="M280.33 710.1a12.45 12.45 0 1 1 12.45 12.45 12.45 12.45 0 0 1-12.45-12.45Z" class="colorabb7c2 svgShape"></path><path fill="#010101" d="M184.94 710.1a15.91 15.91 0 1 1 15.9 15.9 15.91 15.91 0 0 1-15.9-15.9Z" class="color010101 svgShape"></path><path fill="#abb7c2" d="M188.39 710.1a12.45 12.45 0 1 1 12.45 12.45 12.45 12.45 0 0 1-12.45-12.45ZM191.05 589.66a12.66 12.66 0 0 0 12.67 12.66h105.49l7.58-2.37c19-6.06 67.67-21.9 70.92-27 4-6.33 13.65-95.74 13.65-95.74h-105.5a12.68 12.68 0 0 0-13.63 11.63l-2.45 55.93A35.18 35.18 0 0 1 244.89 577h-41.17a12.67 12.67 0 0 0-12.67 12.66Z" class="colorabb7c2 svgShape"></path><path fill="#010101" d="M270.42 618.44H312c6.1 0 11-8.76 11-19.57h-63.63c0 10.81 4.95 19.57 11.05 19.57Z" class="color010101 svgShape"></path><path fill="#abb7c2" d="M191.05 589.66a12.66 12.66 0 0 0 12.67 12.66h113.07V577H203.72a12.67 12.67 0 0 0-12.67 12.66Z" class="colorabb7c2 svgShape"></path><path fill="#010101" d="M309.21 602.32h41.18a60.62 60.62 0 0 0 60.13-55.55l2.48-55.92a12.66 12.66 0 0 0-25.25-2l-2.46 55.93a35.16 35.16 0 0 1-34.9 32.22h-41.18a12.67 12.67 0 0 0 0 25.33Z" class="color010101 svgShape"></path><path fill="#ffffff" d="M191.09 680.33c1.81-1.17 15.18 4.8 15 5.67-.43 2.69-3 12.65-4.8 13.5s-15.48-3.85-14.92-6.41c.53-2.21 2.97-11.64 4.72-12.76Z" class="colorfff svgShape"></path><path fill="#010101" d="M200.78 700.27c-3 0-10.95-2.79-13.76-5-.38-.3-1.53-1.21-1.29-2.33 0-.12 2.67-11.72 5-13.2 2.09-1.36 12.82 3.53 15.13 5 .55.36 1.08.76 1 1.34-.17 1.06-2.77 12.86-5.18 14a2 2 0 0 1-.9.19Zm-9.32-19.35c-1.27.83-3.54 8.57-4.36 12.32 0 0 0 .24.58.75 2.85 2.49 12.23 5.29 13.37 4.88 1.19-.58 3.69-9 4.35-12.71-1.63-1.43-12.57-5.92-13.94-5.24Z" class="color010101 svgShape"></path><path fill="#010101" d="M203.32 696.85s3.32 11.28-3.65 16.93c0 0-33.8-9.59-43.32-14.53 0 0 3.85-12.35 12.81-10.51a134.58 134.58 0 0 1 17.48 5s8.14 7.8 16.68 3.11ZM314.89 556.93c-8.78 17.37-40.2 24.44-63.51 30.58-14 3.7-25 7.07-26.53 12.16-5.81 19.88-9.91 72.17-15.42 90.47-2 2.28-6.11 2.31-10.41 1.52a69.28 69.28 0 0 1-14.36-4.73c1.25-40.76-2.12-78.77 4.42-107 11-47.5 82.87-69.2 82.87-69.2 12.62-13.86 58.34 15.74 42.94 46.2Z" class="color010101 svgShape"></path><path fill="#ffffff" d="M264.64 695.52c.88-2 15.34-4.27 15.7-3.47 1.11 2.49 4.36 12.26 3.36 13.93s-15.08 5.23-16 2.78c-.81-2.12-3.91-11.34-3.06-13.24Z" class="colorfff svgShape"></path><path fill="#010101" d="M270.22 710.29h-.84c-.48 0-1.94-.17-2.34-1.24 0-.11-4.16-11.29-3-13.78 1-2.27 12.67-4 15.43-4 .65 0 1.31 0 1.55.58.44 1 4.71 12.27 3.32 14.57-.99 1.49-9.72 3.87-14.12 3.87Zm-4.94-14.49c-.61 1.39 1.71 9.12 3.07 12.71 0 0 .12.21.89.31 3.74.54 13.14-2.24 13.86-3.21s-1.82-9.59-3.29-13c-2.16-.35-13.75 1.9-14.53 3.19ZM282.2 521.12a1.37 1.37 0 0 0-1.79 1.26 1.83 1.83 0 0 0-.43.2c-14.17 9.77-33.26 13.77-44 28.07-4.26 5.72-5.94 12.46-7.33 19.29-2.15 10.51-6.41 18.86-10.8 28.51-7.83 17.2-13.51 36.82-17.21 55.35a118.34 118.34 0 0 0-2.45 28.28 64.45 64.45 0 0 0 .86 9.58c4.3.79 8.43.76 10.41-1.52 5.51-18.3 9.61-70.59 15.42-90.47 1.49-5.09 12.55-8.46 26.53-12.16A221.82 221.82 0 0 1 268 569.25c7.63-7.54 16.48-13.81 23.91-21.54 10.8-11.33 4.09-22.71-9.71-26.59Z" class="color010101 svgShape"></path><path fill="#010101" d="M283.91 702.69s8.94 7.63 6.18 16.17c0 0-33.55 10.41-44.23 11.48 0 0-3.51-12.45 5-15.8a134.09 134.09 0 0 1 17.4-5.33s11.06 2.06 15.65-6.52ZM358.79 558.67c-14 27.82-68.87 19.89-72.83 33.43-5.81 19.89-9.58 91.86-2.08 103.42a15.67 15.67 0 0 1-2.31 2.08c-6.21 4.56-17.08 6.87-17.08 6.87-12.65-27.71-25.27-81.78-27.19-113.13-3-48.62 78.55-78.91 78.55-78.91 10.31-11.26 42.68 6.41 45.81 29.83a27.52 27.52 0 0 1-2.87 16.41Z" class="color010101 svgShape"></path><path fill="#010101" d="M361.66 542.26a15.73 15.73 0 0 0-8.55-1.58 1.65 1.65 0 0 0-.69 3c-7.47 21.28-31.51 26.76-51.3 30.62-14 2.74-25.37 6.87-28.41 22.23-1.81 9.05-1.78 18.63-2.44 27.81s-1.49 18.11-1.52 27.19a86.14 86.14 0 0 0 12.82 46 15.67 15.67 0 0 0 2.31-2.08C276.38 684 280.15 612 286 592.1c4-13.54 58.79-5.61 72.83-33.43a27.52 27.52 0 0 0 2.83-16.41Z" class="color010101 svgShape"></path><path fill="#1357d8" d="M258.45 515.19c.49 1.55 22.07 13.91 34.11 18.43 20.89 7.85 56.21 14 65.26 12.24 3.7-.69 6.07-1.69 6.64-2.87 1.75-3.77-4.28-40.42-3.56-64.8.14-4.72.24-9.51.24-14.2.13-24.51-1.59-47.46-7.14-51.72-1.25-1-2.71-2-4.33-3.11a81.31 81.31 0 0 0-8.38-5 79 79 0 0 0-17.29-6.69 71.69 71.69 0 0 0-34.48-.53 71.72 71.72 0 0 0-9.51 2.84c-.76.27-1.52.57-2.31.86-10.84 4.36-9.28 27.94-7.53 47.73.79 9.18 1.61 17.54 1.29 22.76a45.7 45.7 0 0 1-.67 5.22c-2.47 14.59-10.53 28.24-12.34 38.84Z" class="colorf5814f svgShape"></path><path fill="#ffffff" d="M139.07 498.55c.29-2.25 4.52-6 6.36-7.52 3.82-3.24 8.75-5.91 13.79-6.24a8.15 8.15 0 0 1-.39-1.18 11.16 11.16 0 0 0-2.23.49c-1.78.56-3.26-2-1.53-3s3.39-1.72 5.34-1c.31.11 9.62 4.66 12.36 6.67 2.72-.86 8.33-1 14.59-1l4.17.05c11.5.1 40.95-15.58 43.58-17.3 1.53-1 3.45-6.35 7.84-15.76.25-.56.57-1.17.86-1.76.46-1 .89-1.95 1.42-3 0-.08.08-.15.1-.23 8.86-18.76 21.19-37.79 32.15-44s4.3 43.61 4.3 43.61a48.35 48.35 0 0 1 .41 10.82c-.36 6.29-2.25 10.9-6.92 18.34-.17.28-.36.55-.52.85-1.08 1.67-2.3 3.36-3.64 5.1-1 1.24-2.07 2.45-3.21 3.71-.68.73-1.42 1.48-2.17 2.19-7.12 6.94-8.93 8.3-17.08 12.74-13.4 7.29-19.69 7.59-44.22 5.14-10.61-1.06-26-4.43-36.82-8.86a19 19 0 0 1-3.24 2.52c-4.22 3.2-7.58.73-6.57-.22-2.65 1.34-5.29-.06-4.62-1.37-2.47.67-6.28-2.47-3.08-4.81-2.24.73-6.15 4-7.79 5.89-1.4 1.7-3.49 1.04-3.24-.87Z" class="colorfff svgShape"></path><path fill="#010101" d="M224.65 508.37c-5.26 0-11.64-.54-20.26-1.4-9.62-1-25.09-4.1-36.58-8.74a23.48 23.48 0 0 1-3 2.28c-3.33 2.53-6.36 1.87-7.44.59a1.61 1.61 0 0 1-.24-.36A4.34 4.34 0 0 1 153 500a1.85 1.85 0 0 1-.51-.88 4.67 4.67 0 0 1-4-2.4 2.6 2.6 0 0 1-.27-1.43 27.32 27.32 0 0 0-5.34 4.57 2.83 2.83 0 0 1-3.27 1 2.22 2.22 0 0 1-1.23-2.45c.22-1.79 2.38-4.4 6.6-8a28.59 28.59 0 0 1 10.37-5.74 2.67 2.67 0 0 1-1.54-1.42 2.18 2.18 0 0 1 .9-2.86c1.76-1 3.69-1.88 5.94-1.08A133 133 0 0 1 172.9 486c3-.83 8.75-.9 14.47-.88H191.81c11.14 0 39.87-15.19 42.95-17.19.9-.62 2.23-3.62 4.26-8.15.93-2.08 2-4.52 3.33-7.32.14-.32.3-.65.47-1s.26-.52.38-.78l.41-.86c.32-.7.65-1.41 1-2.13l.09-.21c10.47-22.15 22.6-38.73 32.44-44.35a3.33 3.33 0 0 1 3.74-.11c6.6 4.44 2.22 39.76 1.62 44.32a49.38 49.38 0 0 1 .4 10.88c-.35 6.15-2.13 10.86-7 18.67l-.19.29c-.1.16-.21.33-.3.51a77.81 77.81 0 0 1-3.71 5.2c-1 1.2-2 2.38-3.24 3.75-.69.75-1.45 1.51-2.21 2.23-7.15 7-9.08 8.42-17.22 12.85-8.89 4.86-14.76 6.65-24.38 6.65Zm-57.19-11.8.45.19c11.4 4.68 27 7.85 36.62 8.81 24 2.41 30.43 2.23 43.81-5.06 8.08-4.39 9.82-5.69 16.93-12.62.75-.71 1.48-1.44 2.14-2.16 1.22-1.35 2.23-2.52 3.19-3.68a93.35 93.35 0 0 0 3.59-5 5.25 5.25 0 0 1 .34-.56l.17-.27c4.82-7.68 6.48-12.05 6.82-18a48 48 0 0 0-.4-10.65v-.22c1.42-10.83 4-39.7-1-43.08-.38-.26-1-.52-2.25.17-11.32 6.39-23.87 26.76-31.87 43.67l-.08.17c-.4.79-.72 1.48-1 2.16l-.41.87-.39.8c-.16.33-.32.65-.46.95-1.31 2.81-2.4 5.24-3.32 7.31-2.35 5.25-3.53 7.89-4.76 8.74-3.15 2.05-32.48 17.52-44 17.42h-4.2c-5.55-.05-11.62 0-14.37.91l-.34.11-.29-.22c-2.63-1.93-11.65-6.35-12.2-6.57-1.59-.57-3 0-4.73 1a.78.78 0 0 0-.34 1.08 1.12 1.12 0 0 0 1.31.67 11.33 11.33 0 0 1 2.36-.51l.59-.06.15.57a8.89 8.89 0 0 0 .37 1.1l.36.9-1 .06c-5.87.38-10.91 4-13.39 6.07-5.09 4.31-6 6.29-6.11 7.08a.85.85 0 0 0 .41 1c.39.17 1 0 1.63-.66 1.6-1.9 5.64-5.3 8.1-6.11l4.2-1.38-3.57 2.61c-.87.64-1.13 1.32-.79 2a3.21 3.21 0 0 0 3.28 1.54l1.53-.42-.72 1.41c0 .06-.09.16.11.36a3.3 3.3 0 0 0 3.56.06l4.29-2.18-3.49 3.32c.07 0 .29.23.83.42s2.35.61 4.83-1.27a18.3 18.3 0 0 0 3.16-2.44Z" class="color010101 svgShape"></path><path fill="#2364ec" d="M272.92 484.88c3.12-4.22 7.92-9 12.19-13.69 1.61-1.79 3.16-3.57 4.51-5.25a28.74 28.74 0 0 0 4.24-6.71 8.62 8.62 0 0 0 .73-2.79 130.08 130.08 0 0 0-1.26-14.77c-2.41-18.83-8.68-44-16.94-40.21-14.17 6.42-25.71 27.93-35.79 45 1.63 15.73 11.82 31.68 32.32 38.42Z" class="colorf58132 svgShape"></path><path fill="#010101" d="M270.08 413.46s-7.64 10.09-8.77 28.71c-.29 4.86-5.21 21.36-5.91 32.9 3.37 3.77 12.35 8.71 14.09 7.38l.93-39.85Z" class="color010101 svgShape"></path><path fill="#2364ec" d="M253.83 515.74c.49 1.55 28.9 14.86 45 21.47 20.64 8.47 49.94 10.37 59 8.65 3.7-.69 6.07-1.69 6.64-2.87 1.75-3.77-4.28-40.42-3.56-64.8.14-4.72.24-9.51.24-14.2.13-24.51-1.59-47.46-7.14-51.72-1.25-1-2.71-2-4.33-3.11a81.31 81.31 0 0 0-8.38-5 79 79 0 0 0-17.3-6.69 71.69 71.69 0 0 0-34.48-.53 71.72 71.72 0 0 0-9.51 2.84c-.76.27-1.52.57-2.31.86-10.84 4.36-9.28 27.94-7.53 47.73.76 9.21-18.73 66.28-16.34 67.37Z" class="colorf58132 svgShape"></path><path fill="#ffffff" d="M304.34 386.18v10.59s-2.5 4.6 0 5.1c5.51 1.1 13.45-5.09 13.45-5.09v-16.17Z" class="colorfff svgShape"></path><path fill="#010101" d="M305.73 402.7a7.78 7.78 0 0 1-1.53-.15 1.94 1.94 0 0 1-1.45-1.09c-.71-1.53.47-4.06.89-4.86v-10.89l14.85-6.15v17.56l-.27.21c-.3.24-6.96 5.37-12.49 5.37Zm-.73-16.05v10.46c-.6 1.11-1.29 3-.94 3.76a.57.57 0 0 0 .46.31c4.58.92 11.2-3.71 12.61-4.75v-14.77Z" class="color010101 svgShape"></path><path fill="#ffffff" d="M426 300.37c-.31-1.52-.72-4.39-1.66-5.56-.55-.67-1.27-1.26-2.32-.63a2.49 2.49 0 0 0-1.08 2.4c.19 1.65-.26 2.06-1.61 4.19-1.51-2.13-2.75-5.5-1.46-12.69.43-2.42.84-5.25-.31-7.55a1.34 1.34 0 0 0-1.14-.73h-.34a4.7 4.7 0 0 0-.08-.8c-.35-1.55-.92-2.58-2.78-2.46a5 5 0 0 0-3.32 2.23 2.43 2.43 0 0 0-2.22-1.33c-3.85 0-4.59 4.45-4.34 8.92-3.47 1.48-1 10 1.92 16.26a8.46 8.46 0 0 0 .16 2.47c-2.92 7.4-17.61 43.7-32.53 62-15.76 19.37-17.7 20.86-26.62 43.21-5.4 17.81 14.31 19.77 26.2 18.61 14.42-22.42 30.55-51.38 31.14-53.53.47-1.69 11.62-50.57 14.89-64.89a30.64 30.64 0 0 0 6.73-7.07 3.74 3.74 0 0 0 .77-3.05Z" class="colorfff svgShape"></path><path fill="#010101" d="M367 429.9c-6.3 0-15.34-1-19.77-6.44-2.74-3.34-3.28-7.83-1.61-13.34 8.33-20.89 10.66-23.73 23.56-39.53l3.19-3.92c14.75-18.12 29.37-54.12 32.34-61.66a8.9 8.9 0 0 1-.14-2.28c-2.4-5.19-4.49-11.83-3.23-15.13a3.33 3.33 0 0 1 1.3-1.66c-.16-3.78.47-6.44 1.86-7.91a4.22 4.22 0 0 1 3.18-1.3 3 3 0 0 1 2.24.91 5 5 0 0 1 3.25-1.81c2.48-.17 3.15 1.43 3.5 3a1.27 1.27 0 0 1 .06.28 2.06 2.06 0 0 1 1.48 1.09c1.22 2.44.85 5.29.37 8-1.11 6.22-.25 9.4.78 11.26.86-1.33 1-1.67.91-2.8a3.22 3.22 0 0 1 1.41-3.09c1.15-.69 2.24-.41 3.22.8s1.34 3.4 1.65 5.06l.16.8a4.43 4.43 0 0 1-.93 3.64 32.26 32.26 0 0 1-6.67 7.07l-1 4.54c-4.34 19-13.37 58.57-13.8 60.12-.62 2.3-17.06 31.71-31.22 53.71l-.18.29h-.34c-1.26.15-3.25.3-5.57.3Zm40.68-151.77a2.83 2.83 0 0 0-2.16.87c-1.16 1.21-1.66 3.74-1.46 7.31v.49l-.46.19a1.84 1.84 0 0 0-1 1.11c-1.05 2.74.88 9.12 3.26 14.21l.08.19v.2a7.73 7.73 0 0 0 .15 2.25v.2l-.07.19c-2.82 7.15-17.63 43.78-32.63 62.22l-3.2 3.92c-12.78 15.65-15.08 18.47-23.32 39.11-1.5 5-1.05 9 1.37 12 5.52 6.73 19.19 6.13 23.78 5.71 14.73-22.94 30.33-51.09 30.86-53 .43-1.52 9.79-42.54 13.79-60.06l1.15-5.07.23-.15a30.44 30.44 0 0 0 6.56-6.91 3.07 3.07 0 0 0 .69-2.53l-.16-.82c-.27-1.43-.68-3.59-1.37-4.44s-1-.74-1.41-.47a1.81 1.81 0 0 0-.74 1.72c.19 1.69-.23 2.34-1.25 3.91l-1 1.62-.61-.85c-1.35-1.91-3-5.35-1.58-13.22.44-2.48.78-5.06-.25-7.12a.63.63 0 0 0-.51-.34h-.29l-.73.06v-.73a4 4 0 0 0-.08-.71c-.36-1.58-.81-2-2.05-1.93a4.26 4.26 0 0 0-2.82 2l-.64.82-.52-.9a1.65 1.65 0 0 0-1.66-1.05Z" class="color010101 svgShape"></path><path fill="#2364ec" d="M321.83 416.87c3.46 6.14 24.28 28.49 32.06 26a72.11 72.11 0 0 0 9.41-3.69 34.93 34.93 0 0 0 5.58-3.3c13.58-9.59 23.77-28.17 25.44-31.31-9.78-16-23-22.95-39.71-25.17-12.77 19.27-40.89 23.06-32.78 37.47Z" class="colorf58132 svgShape"></path><path fill="#ffffff" d="M315.29 392.48c-3 0-7.28-1-11-5.82-8.25-10.75-3.38-24.49-3.33-24.62l.16-.44 22.61 1.79.13.4c0 .1 3.25 10.7 3 19.95-.1 4.57-5.63 8.74-11.57 8.74Z" class="colorfff svgShape"></path><path fill="#010101" d="M301.57 362.25 323.3 364s3.23 10.5 3 19.75c-.11 4.07-5.19 8.15-11 8.15-3.56 0-7.39-1.55-10.49-5.59-8.13-10.6-3.23-24-3.23-24Zm-.84-1.3-.32.88c-.21.57-5 14.19 3.42 25.2a14.41 14.41 0 0 0 11.46 6.07c6.25 0 12.07-4.46 12.21-9.35.26-9.34-2.89-19.71-3-20.14l-.24-.8-.83-.07-21.77-1.74-.93-.07Z" class="color010101 svgShape"></path><path fill="#010101" d="M292.9 370c-2.47 2.54.49 5.46 3.77 6.86a3.6 3.6 0 0 0 .33.9c-1 3.48.62 7.46 4.81 5.79 3.86 5.47 9 10.49 17.18 9.34 3.55-.51 7.42-4.9 7.32-7.76-.12-3.61-6.17-1.35-7.74-3.93a1.74 1.74 0 0 0-2.3-.57c-2.51 1.69-4.17 2.38-7.19.77a12.22 12.22 0 0 1-3.88-3.3c.24-2.54-.51-5.37-.62-7.73 0-.66 0-3.41-.08-5.66 8.38 1.23 19.59 2.36 25-3.73 4.8-5.43.69-10.12-5-10.87-1.95-2.54-6.62-3-8.7-.33-1.67-1.41-3.77-2.66-5.71-1.51a3.08 3.08 0 0 0-1.51 2.06 3.64 3.64 0 0 0-2.13-.17 5.26 5.26 0 0 0-2.88 1.68c-2.21-1.52-6 1-6.1 4.31a4.67 4.67 0 0 0-2.71 5.76 5.1 5.1 0 0 0-1.86 8.09Z" class="color010101 svgShape"></path><path fill="#ffffff" d="m566.92 264.18-9.16-53.68 123.69-14.87 2.09 87.01-102.59 4.85-29.57 21.78 15.54-45.09z" class="colorfff svgShape"></path><path fill="#010101" d="m680.69 196.51 2 85.39-101.6 4.8h-.47l-.38.28-27.35 20.16 14.65-42.54.13-.38-.07-.39-9-52.67 122-14.67Zm1.52-1.76-125.35 15.07 9.25 54.29-16.28 47.28 31.39-23.13 103.12-4.87-2.13-88.64Z" class="color010101 svgShape"></path><path fill="#010101" d="m613.16 219.22-4.39 1.52a1.39 1.39 0 0 0-1.35-.31c-.66.18-3.89 1.69-4 .41a1.4 1.4 0 0 0-2.11-1.14c-.08.05-7.5 4.75-7.45 2.29 0-1.49-1.89-1.66-2.6-.63l-3.74 1.42a1.41 1.41 0 0 0-2.33-.55c-1.37 2.19-3.51 2.67-6.42 1.47-.79-1.6-3.14-.13-2.36 1.46 2.26 4.59 6.55 2.83 9.53.22 1.64 1.8 4 1.06 5.85-.57 1.76 2.23 6.44-.12 9.3-1.77a3 3 0 0 0 1.64 1.7c2.53 1.19 2.17-.57 4.31-.81 3.87-.43 5.4 1.37 8.59-3.38.96-1.48-1.48-2.8-2.47-1.33ZM667 212.8c-2.72 1.5-7.95 5.57-11.22 3a1.38 1.38 0 0 0-1.35-.32c-.73.31-3.22 1.73-3.8 1a1.41 1.41 0 0 0-1.91-.45q-2.43 2.55-6.27.84a1.39 1.39 0 0 0-2 0h-4.82c-.62-1.65-3.28-.86-2.65.81 1.59 4.19 5.55 4.89 8.52 2.12 2.43 1.93 5.24 1 7.78-.83 1.95 1.6 3.13-.18 5.71-.31 1.42-.07 2.38 1.19 4.19.94 3.2-.43 6.52-3 9.25-4.52 1.62-.79.15-3.14-1.43-2.28ZM624.17 231.09c-.47.77-8.89 1.2-8.95 1.08a1.41 1.41 0 0 0-1.91-.44 10.29 10.29 0 0 1-5.79 1.83c-.77 0-.25-.79-1.73-.47-.8.17-3.91.8-4 1.56a1.38 1.38 0 0 0-2.11-1.13c-.47.33-1 .6-1.47.91l-.11-.21a1.4 1.4 0 0 0-1.91-.45 41.9 41.9 0 0 0-4.31 3c-.59-1.67-3.24-.87-2.65.81 1.26 3.55 4.84 1.07 7.19-.63l.06.12a1.42 1.42 0 0 0 1.91.45c.43-.23.82-.52 1.23-.76.89.82 2.59.51 4 .27a25.81 25.81 0 0 1 2.91-.6c.28 0 1.54.54 1.76.53 1.87 0 3.72-1.24 5.36-2.27 1.2 1.21 2.7.9 4.67.53 3.08-.58 6.47.07 8.25-2.85.96-1.47-1.48-2.8-2.4-1.28ZM656 229.44c-.53.84-3.24-.36-4-.37a3.87 3.87 0 0 0-1.74.34c-.63.3-1 .41-.74 1-.78-1.61-3.13-.13-2.35 1.46a2.09 2.09 0 0 0 2 1.17 3.12 3.12 0 0 0 1.46-.56c.92-.54 1.18-.75 2.25-.5 2.12.48 4.23.86 5.58-1.24.93-1.47-1.46-2.74-2.46-1.3ZM618.8 248.45c-.9.23-7.36 2.25-7.85 1.49a1.41 1.41 0 0 0-2.18-.22c-.58.08-1.17.15-1.75.24a1.45 1.45 0 0 0-1.58-.6c-1.23.33-10.86 2.61-11.35 2a1.41 1.41 0 0 0-2.18-.22q-1.85 2.72-5.6 1.84c-1.35-1.16-3.26.84-1.91 2 3.07 2.66 6 1.45 8.53-1a4.64 4.64 0 0 0 3.37 1.17c2.08-.1 2.52-1.65 4.26-1.92.94-.14 2 .44 3 .29.64-.1 1.34-1 1.86-1a2.51 2.51 0 0 0 1 .43c1.44-.13 2.2 0 3.24-.54 2.68 1.72 7.43-.67 10-1.33 1.68-.43.87-3.08-.86-2.63ZM665.73 243.41c-.53.05-14-1.07-13.48-.5a1.4 1.4 0 0 0-2 .05 7.56 7.56 0 0 1-8.21 2.54 1.4 1.4 0 0 0-1.88.54l-4.51.71a1.39 1.39 0 0 0-1.68-.17l-6.69.32c-1.5-1-2.82 1.46-1.34 2.43 3.51 2.28 6.28.74 9.7 1 2.91.26 4.85.57 6.37-1.89a6.78 6.78 0 0 0 4.19.21c1.82-.44 3.32-2.49 4.93-2.78.64-.11 2.8.62 3.73.63 2.7 0 3.4-.82 7.1-.65 1.55.08 2.14.45 3.8.28s1.75-2.91-.03-2.72ZM630.16 262.12c-1.13.49-2-.26-3.12-.13s-2.15.77-3.27 1c-1.66.3-9.19.88-9.25.77a1.43 1.43 0 0 0-1.58-.59c-.14 0-10.8 3.38-11.19 2.87-1.08-1.4-3.44 0-2.36 1.46 1.83 2.38 3 1.85 5.59 1 1.68-.53 3.06-.32 4.69-.75.83-.21 1.56-1 2.34-1.16.49-.09.57-.17.55-.22a3.41 3.41 0 0 0 .55.13c.78.15 1.54 1.19 2.65 1.28 2.25.19 4.41-1.37 6.64-1.65a27.09 27.09 0 0 0 2.75-.26c1.93-.44 4.05-.34 5.82-1.12 1.61-.69.83-3.35-.81-2.63ZM667.93 259.42c-.93-.36-1-1.55-2.25-1.71-1.38-.18-2.43 1.14-3.61 1.54-1.63.54-3.28-.13-4.92.29-2.4.63-3.89 2.66-6.53.84-1.47-1-2.79 1.43-1.33 2.43 3.66 2.53 6.52-.51 10.24-.62a10.66 10.66 0 0 0 4.6-.83c1.87-.83 1.33.06 3.14.75s2.3-2.11.66-2.69Z" class="color010101 svgShape"></path><path fill="#ffffff" d="m706.85 502.15-10.48 17.73H105.56l-10.48-17.73h611.77z" class="colorfff svgShape"></path><path fill="#010101" d="M696.77 520.58H105.16l-11.3-19.13h614.22ZM106 519.18h590l9.64-16.32H96.31Z" class="color010101 svgShape"></path><path fill="#010101" d="M645.57 724.3h9.36l-16.17-204.42h-19.83l26.64 204.42z" class="color010101 svgShape"></path><path fill="#ffffff" d="M689.92 724.3h9.36l-16.16-204.42h-19.83l26.63 204.42z" class="colorfff svgShape"></path><path fill="#010101" d="M700 725h-10.7l-26.81-205.82h21.28l.05.65Zm-9.5-1.41h8l-16-203h-18.41Z" class="color010101 svgShape"></path><path fill="#ffffff" d="M108.34 724.3h-9.36l16.16-204.42h19.83L108.34 724.3z" class="colorfff svgShape"></path><path fill="#010101" d="M109 725H98.22l16.27-205.83h21.28l-.1.8Zm-9.22-1.41h8l26.45-203h-18.44ZM153.17 724.3h-9.36l16.16-204.42h19.83L153.17 724.3zM535.13 496.65h72.6v5h-72.6z" class="color010101 svgShape"></path><path fill="#010101" d="M601.31 494.34h4.21v2.98h-4.21zM595.21 494.34h4.2v2.98h-4.2zM589.12 494.34h4.2v2.98h-4.2zM583.02 494.35h4.21v2.98h-4.21zM576.93 494.35h4.2v2.98h-4.2zM570.84 494.35h4.2v2.98h-4.2zM564.74 494.35h4.2v2.98h-4.2zM558.65 494.35h4.2v2.98h-4.2zM552.56 494.35h4.2v2.98h-4.2zM546.45 494.35h4.21v2.98h-4.21zM540.36 494.35h4.21v2.98h-4.21z" class="color010101 svgShape"></path><path fill="#010101" d="M604 497.03h10.57l16.5-27.23h-10.56L604 497.03z" class="color010101 svgShape"></path><path fill="#abb7c2" d="M608.71 497.03h10.56l16.5-27.23h-10.56l-16.5 27.23z" class="colorabb7c2 svgShape"></path><path fill="#010101" d="M574.39 476.4h96.73a5.82 5.82 0 0 0 5.8-5.34l6.08-74.84a5.82 5.82 0 0 0-5.79-6.29h-96.74a5.82 5.82 0 0 0-5.79 5.35l-6.08 74.84a5.81 5.81 0 0 0 5.79 6.28Z" class="color010101 svgShape"></path><path fill="#ffffff" d="M578 476.4h100.76a3.78 3.78 0 0 0 3.78-3.48L689 394a3.79 3.79 0 0 0-3.77-4.1H584.38a3.78 3.78 0 0 0-3.77 3.48l-6.42 78.9a3.79 3.79 0 0 0 3.81 4.12Z" class="colorfff svgShape"></path><path fill="#010101" d="M678.76 477.11H578a4.49 4.49 0 0 1-4.47-4.86l6.41-78.9a4.51 4.51 0 0 1 4.47-4.12h100.8a4.49 4.49 0 0 1 4.47 4.85L683.24 473a4.53 4.53 0 0 1-4.48 4.11Zm-94.38-86.47a3.1 3.1 0 0 0-3.08 2.83l-6.41 78.9a3.08 3.08 0 0 0 3.11 3.33h100.76a3.1 3.1 0 0 0 3.08-2.84l6.41-78.86a3.08 3.08 0 0 0-3.07-3.33ZM573.45 501.65c6.08-6.4 20.34-10.89 36.95-10.89s30.87 4.49 37 10.89Z" class="color010101 svgShape"></path><path fill="#abb7c2" d="M580.13 501.65c6.09-6.4 20.34-10.89 37-10.89s30.87 4.49 37 10.89Z" class="colorabb7c2 svgShape"></path><path fill="#010101" d="M588.13 467h23.56a1.33 1.33 0 0 0 1.32-1.2l.72-7.23a1.33 1.33 0 0 0-1.32-1.47h-23.56a1.32 1.32 0 0 0-1.32 1.2l-.73 7.24a1.33 1.33 0 0 0 1.33 1.46ZM192.16 496.65h72.6v5h-72.6z" class="color010101 svgShape"></path><path fill="#010101" d="M194.38 494.34h4.21v2.98h-4.21zM200.48 494.34h4.21v2.98h-4.21zM206.57 494.34h4.2v2.98h-4.2zM212.66 494.35h4.21v2.98h-4.21zM218.76 494.35h4.2v2.98h-4.2zM224.86 494.35h4.2v2.98h-4.2zM230.95 494.35h4.2v2.98h-4.2zM237.04 494.35h4.2v2.98h-4.2zM243.14 494.35h4.2v2.98h-4.2zM249.23 494.35h4.21v2.98h-4.21zM255.32 494.35h4.21v2.98h-4.21z" class="color010101 svgShape"></path><path fill="#010101" d="M195.89 497.03h-10.56l-16.51-27.23h10.56l16.51 27.23z" class="color010101 svgShape"></path><path fill="#abb7c2" d="M191.19 497.03h-10.57l-16.5-27.23h10.56l16.51 27.23z" class="colorabb7c2 svgShape"></path><path fill="#010101" d="M225.5 476.4h-96.73a5.82 5.82 0 0 1-5.8-5.34l-6.08-74.84a5.82 5.82 0 0 1 5.8-6.29h96.73a5.82 5.82 0 0 1 5.79 5.35l6.08 74.84a5.81 5.81 0 0 1-5.79 6.28Z" class="color010101 svgShape"></path><path fill="#ffffff" d="M221.93 476.4h-100.8a3.79 3.79 0 0 1-3.78-3.48L110.94 394a3.79 3.79 0 0 1 3.78-4.1h100.8a3.79 3.79 0 0 1 3.77 3.48l6.41 78.9a3.78 3.78 0 0 1-3.77 4.12Z" class="colorfff svgShape"></path><path fill="#010101" d="M221.93 477.11h-100.8a4.51 4.51 0 0 1-4.47-4.13l-6.41-78.9a4.49 4.49 0 0 1 4.47-4.85h100.8a4.52 4.52 0 0 1 4.47 4.12l6.41 78.9a4.5 4.5 0 0 1-4.47 4.86Zm-107.21-86.47a3.08 3.08 0 0 0-3.08 3.33l6.41 78.89a3.1 3.1 0 0 0 3.08 2.84h100.8a3.08 3.08 0 0 0 3.07-3.33l-6.41-78.9a3.1 3.1 0 0 0-3.07-2.83ZM226.44 501.65c-6.08-6.4-20.33-10.89-36.95-10.89s-30.87 4.49-37 10.89Z" class="color010101 svgShape"></path><path fill="#abb7c2" d="M219.76 501.65c-6.08-6.4-20.34-10.89-36.95-10.89s-30.87 4.49-36.95 10.89Z" class="colorabb7c2 svgShape"></path><path fill="#010101" d="M211.77 467h-23.56a1.33 1.33 0 0 1-1.33-1.2l-.72-7.23a1.33 1.33 0 0 1 1.32-1.47H211a1.33 1.33 0 0 1 1.33 1.2l.72 7.24a1.33 1.33 0 0 1-1.28 1.46Z" class="color010101 svgShape"></path><path fill="#ffffff" d="M276.34 344.42c-12.55-2.12-20.81-18.21-21.18-26.72v-.74l-53.16-.38a8.84 8.84 0 0 1-8.75-8.89l.38-49.51a8.84 8.84 0 0 1 8.81-8.75l86 .34a8.82 8.82 0 0 1 8.75 8.88l-.38 49.51a8.83 8.83 0 0 1-8.81 8.75l-13.26.21-.19.49c-3.88 9.76.29 22.75 1.79 26.81Z" class="colorfff svgShape"></path><path fill="#010101" d="m202.44 248.65.07 1.56 85.95.34a8 8 0 0 1 8 8.09l-.38 49.52a8.07 8.07 0 0 1-8.13 8l-12.65.21h-1l-.38 1c-3.66 9.12-.47 20.9 1.28 26.06-12.07-3-18.9-18.91-19.2-25.71l-.06-1.48h-1.49L202 315.8a8.06 8.06 0 0 1-8-8.1l.38-49.52a8.06 8.06 0 0 1 8-8v-1.56Zm0 0a9.59 9.59 0 0 0-9.59 9.52l-.38 49.52a9.6 9.6 0 0 0 9.53 9.67l52.38.38c.37 8.49 9 26.35 23.16 27.63 0 0-6.76-16.16-2.23-27.47l12.65-.2h.04a9.6 9.6 0 0 0 9.59-9.53l.38-49.51a9.61 9.61 0 0 0-9.52-9.68l-86-.33Z" class="color010101 svgShape"></path><path fill="#010101" d="M222.54 279.75a6 6 0 1 1-5.94-6.1 6 6 0 0 1 5.94 6.1ZM250.77 280.48a6 6 0 1 1-5.94-6.1 6 6 0 0 1 5.94 6.1ZM279.35 280.5a6 6 0 1 1-5.94-6.1 6 6 0 0 1 5.94 6.1Z" class="color010101 svgShape"></path></svg></g></svg>